<svg id="svg" version="1.1" xmlns="http://www.w3.org/2000/svg" xmlns:xlink="http://www.w3.org/1999/xlink" width="400" height="15.061295971978984" viewBox="0, 0, 400,15.061295971978984"><g id="svgg"><path id="path0" d="M167.619 1.937 C 167.311 2.245,167.504 2.995,167.918 3.099 C 168.492 3.243,169.204 2.765,169.135 2.281 C 169.082 1.911,167.911 1.644,167.619 1.937 M167.364 4.542 C 167.265 4.931,167.101 5.775,166.999 6.417 C 166.898 7.058,166.744 7.921,166.658 8.333 C 166.572 8.746,166.454 9.515,166.395 10.042 L 166.287 11.000 166.958 11.000 C 167.558 11.000,167.638 10.951,167.715 10.542 C 168.932 4.062,168.946 3.833,168.110 3.833 C 167.583 3.833,167.531 3.882,167.364 4.542 M172.119 4.120 C 168.959 5.173,168.018 9.558,170.694 10.762 C 171.908 11.308,175.963 11.231,177.083 10.641 C 179.918 9.147,180.397 5.508,177.926 4.252 C 176.897 3.730,173.519 3.653,172.119 4.120 M181.074 3.961 C 180.977 4.028,180.769 4.871,180.611 5.833 C 180.454 6.796,180.189 8.352,180.023 9.291 C 179.688 11.189,179.684 11.168,180.403 11.164 C 181.149 11.160,181.304 10.999,181.364 10.164 L 181.417 9.417 184.745 9.371 C 186.627 9.346,188.145 9.255,188.237 9.163 C 188.327 9.073,188.528 9.000,188.685 9.000 C 188.841 9.000,189.314 8.617,189.735 8.149 C 191.083 6.649,190.782 4.641,189.114 4.011 C 188.583 3.810,181.355 3.765,181.074 3.961 M192.232 3.961 C 192.130 4.028,192.000 4.458,191.944 4.917 C 191.888 5.375,191.764 6.125,191.669 6.583 C 191.426 7.758,191.178 9.267,191.060 10.292 L 190.959 11.167 195.382 11.167 C 200.391 11.167,200.333 11.176,200.333 10.402 L 200.333 9.840 196.542 9.795 L 192.750 9.750 192.699 9.229 C 192.607 8.280,192.905 8.167,195.479 8.167 C 197.995 8.167,198.167 8.106,198.167 7.221 L 198.167 6.676 195.708 6.629 L 193.250 6.583 193.286 6.094 C 193.356 5.127,193.179 5.167,197.411 5.167 L 201.333 5.167 201.333 4.500 L 201.333 3.833 196.875 3.836 C 194.423 3.837,192.333 3.894,192.232 3.961 M202.102 3.970 C 202.055 4.046,202.688 4.775,203.509 5.592 C 205.163 7.239,205.228 7.401,204.469 8.000 C 204.178 8.229,203.514 8.754,202.993 9.167 C 202.472 9.579,201.773 10.131,201.439 10.393 C 200.639 11.023,200.675 11.167,201.628 11.167 C 202.438 11.167,203.185 10.789,204.165 9.883 C 204.393 9.673,204.632 9.500,204.695 9.500 C 204.758 9.500,204.909 9.404,205.030 9.286 C 206.610 7.752,207.509 7.842,209.343 9.718 L 210.759 11.167 211.796 11.167 C 213.116 11.167,213.126 11.201,211.245 9.330 C 209.268 7.363,209.250 7.485,211.780 5.569 C 213.955 3.922,214.010 3.833,212.862 3.833 C 212.195 3.833,210.110 5.071,209.500 5.829 C 208.393 7.204,206.959 7.013,205.157 5.250 C 203.722 3.845,202.496 3.332,202.102 3.970 M222.917 3.989 C 218.864 4.976,218.341 10.602,222.257 11.091 C 226.736 11.651,229.627 10.192,229.964 7.204 C 230.264 4.542,226.917 3.015,222.917 3.989 M231.705 4.114 C 231.621 4.281,231.457 4.979,231.340 5.667 C 231.223 6.354,230.981 7.686,230.802 8.626 C 230.389 10.798,230.423 11.068,231.114 11.135 C 231.712 11.193,231.897 10.968,232.087 9.955 L 232.204 9.333 235.509 9.333 C 237.532 9.333,238.854 9.269,238.917 9.167 C 238.973 9.075,239.154 9.000,239.318 9.000 C 241.062 9.000,241.909 5.266,240.398 4.242 C 239.676 3.754,231.943 3.640,231.705 4.114 M244.040 3.971 C 242.818 4.337,241.977 5.739,242.345 6.795 C 242.659 7.695,243.233 7.833,246.692 7.836 C 248.374 7.837,249.825 7.894,249.917 7.961 C 250.402 8.317,250.524 8.644,250.318 9.031 C 249.907 9.802,249.788 9.822,245.727 9.828 L 241.870 9.833 241.800 10.434 C 241.707 11.226,241.533 11.197,246.024 11.136 C 249.350 11.091,249.994 11.041,250.450 10.792 C 251.895 10.001,252.383 8.175,251.418 7.168 L 250.938 6.667 247.677 6.661 C 244.346 6.656,243.825 6.564,243.839 5.982 C 243.856 5.209,244.073 5.167,248.060 5.167 C 251.690 5.167,251.833 5.154,251.833 4.842 C 251.833 4.663,251.964 4.443,252.124 4.354 C 252.283 4.265,252.352 4.130,252.277 4.054 C 252.111 3.888,244.573 3.811,244.040 3.971 M177.439 5.762 C 179.233 7.664,177.345 9.833,173.896 9.833 C 171.329 9.833,170.750 9.489,170.750 7.960 C 170.750 5.893,171.804 5.167,174.805 5.167 L 176.877 5.167 177.439 5.762 M188.767 5.587 C 189.159 6.184,188.977 7.143,188.380 7.624 C 187.938 7.981,187.779 7.998,184.853 7.999 L 181.790 8.000 181.905 6.984 C 181.968 6.426,182.089 5.788,182.173 5.568 L 182.325 5.167 185.409 5.167 L 188.492 5.167 188.767 5.587 M227.478 5.405 C 228.952 6.167,228.556 8.693,226.822 9.589 C 226.233 9.894,222.664 9.933,222.117 9.640 C 220.694 8.878,220.953 6.467,222.565 5.484 C 223.235 5.075,226.731 5.019,227.478 5.405 M239.362 5.442 C 239.886 5.917,239.775 7.046,239.154 7.569 C 238.643 7.999,238.632 8.000,235.554 8.000 L 232.466 8.000 232.552 7.292 C 232.634 6.611,232.789 5.813,232.925 5.375 C 233.035 5.021,238.965 5.083,239.362 5.442 M214.111 7.111 C 214.050 7.172,214.000 7.472,214.000 7.778 L 214.000 8.333 215.587 8.333 C 217.244 8.333,217.740 8.034,217.429 7.221 C 217.339 6.987,214.335 6.887,214.111 7.111 " stroke="none" fill="#40312a" fill-rule="evenodd"></path><path id="path1" d="M148.000 4.876 L 148.000 9.752 149.919 9.691 C 151.211 9.650,151.915 9.694,152.071 9.823 C 152.230 9.955,152.338 9.961,152.412 9.841 C 152.568 9.589,156.044 9.611,156.300 9.867 C 156.456 10.022,156.500 10.022,156.500 9.867 C 156.500 9.522,157.469 9.631,157.666 9.998 C 157.889 10.416,158.531 10.585,158.981 10.344 C 160.060 9.766,159.643 8.350,158.388 8.336 C 158.280 8.334,157.963 8.526,157.683 8.762 C 157.077 9.271,156.833 9.177,156.833 8.434 C 156.833 8.013,156.929 7.843,157.247 7.698 C 157.516 7.576,157.626 7.422,157.562 7.255 C 157.295 6.558,156.619 7.295,156.599 8.306 L 156.583 9.083 154.774 9.131 C 153.650 9.160,152.882 9.110,152.747 8.998 C 152.596 8.873,152.497 8.871,152.422 8.992 C 152.296 9.196,149.190 9.229,148.877 9.031 C 148.629 8.873,148.870 7.852,149.205 7.639 C 149.602 7.388,152.438 7.475,152.663 7.745 C 152.986 8.134,153.417 7.598,153.355 6.885 C 153.264 5.829,153.969 5.512,154.766 6.250 C 155.339 6.781,155.842 6.778,156.484 6.238 C 157.040 5.770,157.324 5.818,157.350 6.385 C 157.365 6.720,157.376 6.716,157.482 6.333 C 157.631 5.792,158.249 5.696,158.725 6.141 C 159.815 7.158,161.377 6.271,160.595 5.078 C 160.172 4.432,158.667 4.529,158.667 5.203 C 158.667 5.446,158.017 5.335,157.866 5.065 C 157.728 4.819,157.708 4.819,157.613 5.065 C 157.486 5.396,156.690 5.422,156.566 5.099 C 156.517 4.969,156.257 4.773,155.989 4.662 C 155.488 4.455,155.465 4.463,154.398 5.246 C 154.250 5.355,154.113 5.346,153.987 5.220 C 153.692 4.926,154.093 3.892,154.549 3.770 C 155.282 3.573,157.418 3.661,157.762 3.902 C 158.057 4.109,158.147 4.099,158.507 3.822 C 158.732 3.649,158.823 3.506,158.708 3.504 C 158.594 3.502,158.500 3.308,158.500 3.072 C 158.500 2.043,159.192 1.701,160.000 2.333 C 160.749 2.920,161.753 2.684,161.837 1.902 C 161.965 0.719,160.880 0.240,159.995 1.089 C 159.716 1.355,159.452 1.471,159.277 1.404 C 158.974 1.288,158.901 0.748,159.167 0.583 C 159.999 0.069,159.351 0.000,153.667 0.000 L 148.000 0.000 148.000 4.876 M163.167 0.200 C 163.167 0.596,162.323 3.153,162.123 3.366 C 162.009 3.485,161.914 3.885,161.910 4.253 C 161.901 5.118,161.373 6.793,160.989 7.178 C 160.758 7.408,160.722 7.585,160.830 7.947 C 160.908 8.205,160.978 8.288,160.986 8.131 C 161.016 7.517,164.340 7.156,164.805 7.716 C 164.985 7.933,164.737 9.152,164.456 9.433 C 164.388 9.501,164.333 9.751,164.333 9.991 C 164.333 10.985,163.987 11.167,162.088 11.167 C 160.858 11.167,160.339 11.107,160.285 10.958 C 160.137 10.551,159.578 11.084,159.634 11.580 C 159.689 12.071,159.035 14.459,158.807 14.600 C 158.730 14.647,158.667 14.757,158.667 14.843 C 158.667 14.941,176.347 15.000,205.500 15.000 L 252.333 15.000 252.333 12.250 C 252.333 10.528,252.271 9.500,252.167 9.500 C 252.075 9.500,251.999 9.556,251.997 9.625 C 251.992 9.876,251.069 10.789,250.550 11.058 C 249.984 11.350,241.988 11.482,241.560 11.206 C 241.439 11.127,241.410 10.845,241.480 10.417 L 241.589 9.750 245.419 9.661 C 249.828 9.559,250.000 9.524,250.000 8.731 L 250.000 8.167 246.742 8.167 C 242.609 8.167,242.000 7.912,242.000 6.182 C 242.000 4.020,242.850 3.667,248.052 3.667 L 252.333 3.667 252.333 1.833 L 252.333 0.000 207.750 0.000 C 173.218 0.000,163.167 0.045,163.167 0.200 M161.250 1.667 C 161.250 1.972,161.150 2.098,160.874 2.137 C 160.465 2.195,160.232 1.837,160.398 1.405 C 160.567 0.965,161.250 1.175,161.250 1.667 M169.359 1.869 C 169.601 2.251,169.509 2.673,169.091 3.091 C 168.256 3.926,166.729 3.224,167.153 2.200 C 167.438 1.511,168.984 1.279,169.359 1.869 M169.078 3.825 C 169.177 3.985,169.083 4.669,168.586 7.417 C 168.436 8.242,168.239 9.364,168.148 9.911 C 167.930 11.209,167.788 11.361,166.848 11.300 L 166.083 11.250 166.094 10.500 C 166.100 10.087,166.198 9.262,166.313 8.667 C 166.586 7.244,166.830 5.763,166.944 4.833 C 166.994 4.421,167.112 3.990,167.205 3.875 C 167.402 3.632,168.934 3.592,169.078 3.825 M178.050 3.937 C 180.773 5.316,180.345 9.077,177.263 10.845 C 176.085 11.521,171.550 11.592,170.422 10.953 C 167.804 9.471,168.391 5.734,171.500 4.081 C 172.475 3.563,177.110 3.461,178.050 3.937 M189.993 4.103 C 191.224 5.139,191.275 6.769,190.124 8.214 C 189.203 9.369,188.687 9.500,185.074 9.500 L 181.847 9.500 181.654 10.208 C 181.549 10.598,181.435 11.010,181.403 11.125 C 181.321 11.413,179.763 11.400,179.522 11.110 C 179.420 10.987,179.368 10.854,179.406 10.816 C 179.478 10.744,180.096 7.314,180.333 5.667 C 180.406 5.162,180.511 4.619,180.566 4.458 C 180.621 4.298,180.702 4.054,180.745 3.917 C 180.812 3.703,181.449 3.667,185.149 3.667 L 189.474 3.667 189.993 4.103 M205.408 5.089 C 207.250 7.016,207.387 7.015,209.987 5.074 L 211.891 3.653 212.974 3.701 C 214.307 3.761,214.421 3.982,213.469 4.664 C 213.074 4.947,212.637 5.270,212.500 5.383 C 212.362 5.496,211.987 5.772,211.667 5.998 C 211.346 6.223,210.897 6.578,210.668 6.787 C 210.440 6.996,210.191 7.167,210.114 7.167 C 209.784 7.167,210.178 7.725,211.583 9.249 C 213.412 11.233,213.413 11.237,211.829 11.298 L 210.575 11.346 209.192 9.923 C 207.514 8.196,206.372 8.023,205.333 9.340 C 205.287 9.398,204.693 9.870,204.013 10.389 L 202.776 11.333 196.846 11.331 C 190.393 11.328,190.375 11.325,190.639 10.479 C 190.736 10.170,190.898 9.354,191.000 8.667 C 191.102 7.979,191.256 7.186,191.343 6.905 C 191.429 6.623,191.500 6.173,191.501 5.905 C 191.502 5.483,191.691 4.567,191.921 3.873 C 191.975 3.710,193.316 3.665,198.025 3.671 L 204.060 3.679 205.408 5.089 M228.760 4.095 C 231.210 5.683,230.439 9.623,227.408 11.004 C 226.412 11.458,221.654 11.498,220.995 11.058 C 220.240 10.554,219.500 9.771,219.500 9.477 C 219.500 9.317,219.425 9.140,219.333 9.083 C 218.372 8.489,219.918 5.256,221.665 4.208 L 222.569 3.667 225.334 3.667 C 228.021 3.667,228.119 3.679,228.760 4.095 M240.742 4.212 C 242.202 5.474,241.665 8.002,239.704 9.101 C 239.018 9.485,238.865 9.500,235.662 9.500 L 232.333 9.500 232.333 10.217 C 232.333 11.130,232.118 11.333,231.154 11.333 C 230.311 11.333,229.919 11.064,230.174 10.661 C 230.259 10.527,230.329 10.136,230.331 9.794 C 230.332 9.452,230.409 8.852,230.501 8.461 C 230.593 8.070,230.824 6.891,231.013 5.840 C 231.202 4.790,231.393 3.871,231.438 3.798 C 231.483 3.726,233.453 3.667,235.815 3.667 L 240.111 3.667 240.742 4.212 M201.500 4.833 L 201.500 5.333 197.700 5.333 C 193.683 5.333,193.500 5.367,193.500 6.112 C 193.500 6.487,193.526 6.492,195.958 6.537 L 198.417 6.583 198.362 7.415 C 198.292 8.492,198.514 8.404,195.612 8.500 L 193.083 8.583 193.083 9.000 L 193.083 9.417 196.833 9.508 C 201.104 9.612,200.667 9.547,200.667 10.083 C 200.667 10.592,200.827 10.607,201.349 10.148 C 201.570 9.954,202.012 9.598,202.333 9.357 C 202.654 9.116,202.954 8.878,203.000 8.829 C 203.046 8.779,203.440 8.451,203.875 8.099 C 204.862 7.302,204.916 7.509,203.266 5.791 C 201.745 4.207,201.500 4.074,201.500 4.833 M156.137 5.625 C 156.182 5.944,156.113 6.000,155.678 6.000 C 155.240 6.000,155.167 5.939,155.167 5.572 C 155.167 4.987,156.053 5.036,156.137 5.625 M160.167 5.583 C 160.167 5.909,160.081 6.000,159.778 6.000 C 159.284 6.000,159.182 5.894,159.288 5.490 C 159.422 4.975,160.167 5.053,160.167 5.583 M248.333 5.333 C 244.585 5.417,244.167 5.476,244.167 5.927 C 244.167 6.127,244.677 6.167,247.257 6.167 C 250.570 6.167,251.354 6.337,251.874 7.171 C 252.222 7.726,252.333 7.545,252.333 6.427 C 252.333 5.112,252.782 5.234,248.333 5.333 M172.417 5.677 C 170.654 6.540,170.437 8.780,172.050 9.468 C 175.050 10.748,179.230 7.893,177.252 5.915 C 176.581 5.243,173.601 5.097,172.417 5.677 M182.525 5.554 C 182.424 5.675,182.321 6.219,182.296 6.762 L 182.250 7.750 184.941 7.796 C 187.629 7.841,187.632 7.841,188.149 7.406 C 188.845 6.821,188.894 5.824,188.242 5.527 C 187.614 5.241,182.765 5.263,182.525 5.554 M223.083 5.557 C 221.167 6.278,220.842 8.913,222.599 9.482 C 225.568 10.443,229.056 8.405,227.964 6.346 C 227.474 5.421,224.655 4.966,223.083 5.557 M233.173 5.656 C 233.078 5.833,233.000 6.172,233.000 6.408 C 233.000 6.644,232.906 6.989,232.792 7.174 C 232.448 7.729,232.881 7.828,235.671 7.831 C 238.364 7.833,238.695 7.758,239.286 7.008 C 239.633 6.567,239.540 5.898,239.089 5.603 C 238.417 5.162,233.413 5.207,233.173 5.656 M217.646 6.926 C 217.945 7.253,217.650 8.348,217.220 8.512 C 216.766 8.684,214.343 8.724,213.930 8.566 C 213.435 8.375,213.717 6.938,214.282 6.774 C 214.771 6.632,217.490 6.755,217.646 6.926 M159.000 9.417 C 159.000 9.747,158.916 9.833,158.593 9.833 C 158.134 9.833,157.926 9.601,158.063 9.242 C 158.234 8.798,159.000 8.941,159.000 9.417 M155.833 11.015 C 155.833 11.138,155.173 11.186,153.792 11.164 C 152.669 11.147,150.906 11.140,149.875 11.149 L 148.000 11.167 148.000 13.083 L 148.000 15.000 151.601 15.000 C 154.762 15.000,155.190 14.969,155.105 14.746 C 155.051 14.606,155.107 14.174,155.229 13.787 C 155.352 13.400,155.551 12.761,155.672 12.367 C 155.793 11.973,155.994 11.593,156.119 11.523 C 156.251 11.450,156.301 11.277,156.239 11.115 C 156.119 10.802,155.833 10.732,155.833 11.015 " stroke="none" fill="#fafafa" fill-rule="evenodd"></path><path id="path2" d="M159.347 0.531 C 159.107 1.222,159.369 1.534,159.788 1.056 C 160.569 0.165,161.565 0.284,161.993 1.318 C 162.466 2.458,160.753 3.424,159.910 2.492 C 159.395 1.923,158.750 2.113,158.750 2.833 L 158.750 3.417 160.266 3.464 C 161.350 3.498,161.831 3.451,161.954 3.298 C 162.163 3.035,162.800 1.208,162.841 0.750 C 162.909 0.006,162.896 0.000,161.183 0.000 L 159.533 0.000 159.347 0.531 M160.500 1.654 C 160.500 1.893,160.607 2.000,160.846 2.000 C 161.273 2.000,161.224 1.448,160.790 1.365 C 160.590 1.326,160.500 1.416,160.500 1.654 M154.372 4.037 C 153.739 4.799,154.098 5.554,154.750 4.833 C 155.171 4.369,156.228 4.377,156.558 4.847 C 156.964 5.428,157.583 5.218,157.583 4.500 L 157.583 3.917 156.067 3.869 C 154.983 3.835,154.500 3.883,154.372 4.037 M158.544 3.969 C 158.431 4.041,158.290 4.340,158.232 4.633 C 158.109 5.247,158.378 5.354,158.814 4.863 C 159.440 4.159,160.311 4.245,160.744 5.055 C 161.443 6.362,159.743 7.431,158.736 6.318 C 158.119 5.636,157.433 6.084,157.631 7.042 C 157.715 7.447,160.500 7.476,160.900 7.076 C 161.178 6.798,161.833 4.772,161.833 4.190 C 161.833 3.816,159.077 3.631,158.544 3.969 M155.238 5.519 C 155.113 5.721,155.482 6.027,155.750 5.942 C 155.842 5.913,155.941 5.764,155.971 5.611 C 156.032 5.292,155.426 5.215,155.238 5.519 M159.365 5.623 C 159.448 6.058,160.000 6.106,160.000 5.679 C 160.000 5.440,159.893 5.333,159.654 5.333 C 159.416 5.333,159.326 5.423,159.365 5.623 M153.611 6.111 C 153.550 6.172,153.500 6.472,153.500 6.778 L 153.500 7.333 155.074 7.333 C 156.743 7.333,157.167 7.123,157.167 6.296 C 157.167 5.901,157.058 5.921,156.452 6.431 C 155.862 6.928,155.177 6.891,154.581 6.331 C 154.226 5.998,153.817 5.905,153.611 6.111 M149.093 8.037 C 148.499 8.884,148.676 9.000,150.563 9.000 L 152.293 9.000 152.496 8.510 C 152.806 7.760,152.631 7.667,150.916 7.667 C 149.489 7.667,149.330 7.699,149.093 8.037 M152.988 8.130 C 152.538 8.921,152.692 9.000,154.681 9.000 L 156.500 9.000 156.500 8.333 L 156.500 7.667 154.875 7.668 C 153.274 7.669,153.246 7.676,152.988 8.130 M157.173 7.989 C 156.733 8.810,157.008 9.207,157.619 8.633 C 158.462 7.841,159.650 8.306,159.661 9.433 C 159.672 10.451,158.289 10.976,157.656 10.194 C 157.265 9.711,156.767 9.738,156.425 10.261 C 155.959 10.973,156.295 11.167,157.995 11.167 C 159.723 11.167,159.807 11.105,160.317 9.441 C 160.882 7.594,160.936 7.667,159.006 7.667 C 157.534 7.667,157.325 7.703,157.173 7.989 M161.375 7.774 C 161.260 7.822,161.167 7.968,161.167 8.099 C 161.167 8.231,161.097 8.468,161.012 8.627 C 160.702 9.207,160.337 10.649,160.435 10.905 C 160.598 11.329,163.381 11.281,163.785 10.846 C 164.128 10.477,164.727 8.520,164.639 8.059 C 164.580 7.752,161.974 7.524,161.375 7.774 M158.375 9.122 C 157.993 9.255,158.150 9.667,158.583 9.667 C 158.828 9.667,159.000 9.571,159.000 9.434 C 159.000 9.171,158.685 9.014,158.375 9.122 M148.292 10.065 C 148.131 10.187,148.000 10.485,148.000 10.727 L 148.000 11.167 149.724 11.167 C 151.586 11.167,152.000 10.990,152.000 10.195 C 152.000 9.752,148.849 9.642,148.292 10.065 M152.400 10.066 C 152.079 10.902,152.335 11.081,153.927 11.131 C 155.539 11.182,155.893 11.033,156.027 10.250 C 156.102 9.810,152.568 9.630,152.400 10.066 M156.028 11.792 C 155.771 12.293,155.167 14.303,155.167 14.660 C 155.167 15.671,158.976 14.963,158.994 13.948 C 158.998 13.782,159.121 13.276,159.269 12.825 C 159.680 11.567,159.603 11.500,157.761 11.500 C 156.422 11.500,156.155 11.545,156.028 11.792 " stroke="none" fill="#fb9c2b" fill-rule="evenodd"></path><path id="path3" d="M167.543 1.875 C 167.143 2.381,167.248 3.170,167.714 3.164 C 167.858 3.162,167.853 3.121,167.695 3.021 C 167.117 2.655,167.544 1.917,168.333 1.917 C 169.339 1.917,169.436 2.574,168.500 3.041 C 167.877 3.353,168.032 3.440,168.734 3.173 C 169.228 2.985,169.469 2.281,169.165 1.915 C 168.914 1.613,167.772 1.585,167.543 1.875 M167.281 4.064 C 167.218 4.227,167.171 4.486,167.177 4.639 C 167.184 4.823,167.242 4.781,167.349 4.514 C 167.437 4.293,167.484 4.034,167.452 3.939 C 167.420 3.844,167.343 3.900,167.281 4.064 M171.500 4.192 C 171.179 4.376,170.654 4.796,170.333 5.125 C 169.776 5.696,169.785 5.693,170.535 5.055 C 170.967 4.687,171.680 4.266,172.119 4.120 C 172.660 3.939,172.783 3.854,172.500 3.855 C 172.271 3.856,171.821 4.008,171.500 4.192 M177.767 4.151 C 178.143 4.322,178.658 4.677,178.911 4.939 L 179.370 5.417 179.088 4.967 C 178.776 4.469,177.804 3.831,177.365 3.837 C 177.210 3.839,177.391 3.980,177.767 4.151 M180.759 4.042 C 180.621 4.495,180.120 7.628,180.072 8.333 L 180.022 9.083 180.155 8.417 C 180.228 8.050,180.425 6.925,180.593 5.917 C 180.761 4.908,180.977 4.028,181.074 3.961 C 181.189 3.881,181.176 3.838,181.036 3.836 C 180.919 3.834,180.794 3.927,180.759 4.042 M189.167 4.020 C 190.139 4.407,190.499 4.977,190.514 6.156 C 190.527 7.089,190.551 7.176,190.683 6.750 C 191.043 5.588,190.089 3.816,189.119 3.844 C 188.767 3.854,188.769 3.862,189.167 4.020 M191.925 4.042 C 191.772 4.535,191.684 6.070,191.828 5.750 C 191.910 5.567,191.982 5.104,191.988 4.722 C 191.995 4.333,192.091 3.991,192.208 3.944 C 192.372 3.878,192.370 3.857,192.203 3.846 C 192.086 3.839,191.960 3.927,191.925 4.042 M201.375 4.417 C 201.377 4.783,201.411 4.914,201.451 4.706 C 201.491 4.499,201.490 4.199,201.448 4.040 C 201.406 3.880,201.374 4.050,201.375 4.417 M201.667 3.885 C 201.667 3.913,202.373 4.662,203.237 5.549 C 204.101 6.435,204.842 7.293,204.885 7.455 C 204.950 7.705,204.964 7.699,204.981 7.413 C 204.993 7.196,204.469 6.548,203.509 5.592 C 202.688 4.775,202.055 4.046,202.102 3.970 C 202.148 3.895,202.069 3.833,201.927 3.833 C 201.784 3.833,201.667 3.857,201.667 3.885 M205.157 5.250 C 205.954 6.029,206.640 6.667,206.682 6.667 C 206.725 6.667,206.136 6.029,205.374 5.250 C 204.612 4.471,203.926 3.833,203.849 3.833 C 203.772 3.833,204.361 4.471,205.157 5.250 M209.979 5.222 C 209.005 5.971,208.232 6.610,208.261 6.643 C 208.312 6.701,209.330 6.036,209.500 5.834 C 209.546 5.779,210.071 5.370,210.667 4.924 C 212.004 3.923,212.111 3.830,211.908 3.847 C 211.821 3.854,210.953 4.473,209.979 5.222 M222.435 3.970 C 222.389 4.045,222.572 4.074,222.842 4.034 C 223.112 3.995,223.333 3.933,223.333 3.898 C 223.333 3.771,222.518 3.836,222.435 3.970 M228.057 4.076 C 230.033 4.781,230.596 7.059,229.294 9.083 L 228.972 9.583 229.382 9.107 C 230.920 7.318,229.829 3.800,227.750 3.841 C 227.555 3.845,227.683 3.943,228.057 4.076 M239.750 3.955 C 239.933 4.001,240.308 4.186,240.583 4.367 L 241.083 4.694 240.583 4.265 C 240.308 4.028,239.933 3.843,239.750 3.853 L 239.417 3.872 239.750 3.955 M243.207 4.219 C 241.877 5.112,241.705 6.955,242.884 7.674 C 243.369 7.970,243.705 7.996,246.667 7.966 L 249.917 7.933 246.583 7.842 C 242.949 7.742,242.649 7.666,242.336 6.771 C 241.977 5.738,242.841 4.321,244.040 3.975 C 244.371 3.880,244.376 3.866,244.083 3.860 C 243.900 3.857,243.506 4.018,243.207 4.219 M211.667 5.646 C 209.259 7.494,209.274 7.332,211.318 9.409 C 213.440 11.565,213.501 11.462,211.409 9.257 C 209.483 7.227,209.461 7.507,211.674 5.835 C 213.278 4.624,213.829 4.156,213.635 4.171 C 213.607 4.173,212.721 4.837,211.667 5.646 M221.218 4.667 C 220.844 4.943,220.411 5.374,220.257 5.626 C 220.008 6.033,220.035 6.022,220.494 5.533 C 220.778 5.230,221.281 4.799,221.612 4.575 C 221.943 4.350,222.142 4.167,222.056 4.167 C 221.970 4.167,221.593 4.392,221.218 4.667 M251.944 4.444 C 251.691 4.697,251.821 5.217,252.083 5.000 C 252.221 4.886,252.333 4.689,252.333 4.563 C 252.333 4.320,252.131 4.258,251.944 4.444 M168.692 5.021 C 168.678 5.261,168.629 5.711,168.584 6.021 L 168.501 6.583 168.677 6.024 C 168.773 5.716,168.822 5.266,168.784 5.024 L 168.717 4.583 168.692 5.021 M231.241 5.241 C 231.178 5.575,231.164 5.886,231.210 5.932 C 231.256 5.978,231.345 5.742,231.407 5.407 C 231.470 5.073,231.484 4.762,231.438 4.716 C 231.392 4.670,231.303 4.906,231.241 5.241 M166.859 6.296 C 166.746 7.004,166.573 7.962,166.475 8.425 C 166.376 8.888,166.333 9.413,166.379 9.592 C 166.440 9.834,166.466 9.800,166.481 9.461 C 166.491 9.210,166.572 8.685,166.661 8.294 C 166.939 7.062,167.224 5.168,167.143 5.087 C 167.100 5.044,166.972 5.588,166.859 6.296 M171.991 5.638 C 170.577 6.537,170.236 8.441,171.327 9.352 C 172.148 10.037,175.453 10.088,176.571 9.433 C 178.005 8.593,178.426 6.809,177.439 5.762 L 176.877 5.167 174.805 5.167 C 172.816 5.167,172.702 5.186,171.991 5.638 M182.243 5.344 C 182.183 5.442,182.178 5.567,182.233 5.622 C 182.288 5.677,182.333 5.635,182.333 5.528 C 182.333 5.292,188.114 5.252,188.482 5.485 C 188.609 5.566,188.769 5.921,188.838 6.274 C 188.951 6.863,188.963 6.875,188.981 6.412 C 189.026 5.233,188.835 5.167,185.417 5.167 C 183.427 5.167,182.315 5.229,182.243 5.344 M193.444 5.278 C 193.383 5.339,193.334 5.470,193.336 5.569 C 193.337 5.679,193.390 5.669,193.469 5.545 C 193.564 5.394,194.639 5.327,197.508 5.292 L 201.417 5.244 197.486 5.205 C 195.324 5.184,193.506 5.217,193.444 5.278 M222.565 5.484 C 222.066 5.789,221.333 6.654,221.333 6.939 C 221.333 7.015,221.528 6.791,221.766 6.440 C 222.388 5.526,222.988 5.333,225.222 5.333 C 228.237 5.333,229.133 6.572,227.647 8.688 C 226.878 9.784,222.940 10.156,221.846 9.235 C 221.346 8.814,221.124 8.814,221.545 9.236 C 222.623 10.314,226.682 10.073,227.693 8.870 C 228.712 7.659,228.609 5.990,227.478 5.405 C 226.731 5.019,223.235 5.075,222.565 5.484 M232.925 5.375 C 232.622 6.353,232.423 8.000,232.608 8.000 C 232.686 8.000,232.759 7.719,232.770 7.375 C 232.781 7.031,232.847 6.430,232.917 6.038 L 233.045 5.326 236.143 5.371 L 239.240 5.417 239.451 5.833 C 239.583 6.093,239.663 6.150,239.664 5.984 C 239.671 5.269,239.214 5.167,236.023 5.167 C 233.742 5.167,232.974 5.218,232.925 5.375 M244.040 5.498 C 243.409 6.508,243.878 6.657,247.667 6.650 C 249.632 6.646,250.785 6.587,250.583 6.500 C 250.400 6.421,248.879 6.351,247.203 6.345 C 244.644 6.335,244.141 6.293,244.059 6.081 C 243.806 5.422,244.212 5.342,248.059 5.291 L 251.750 5.243 247.998 5.205 C 244.414 5.168,244.238 5.181,244.040 5.498 M176.898 5.493 C 178.434 6.077,177.898 8.813,176.114 9.489 C 175.263 9.812,172.162 9.714,171.558 9.345 C 170.339 8.602,170.682 6.595,172.183 5.680 C 172.811 5.297,176.046 5.169,176.898 5.493 M179.414 6.934 C 179.413 7.705,179.464 8.203,179.527 8.043 C 179.684 7.648,179.692 5.964,179.539 5.725 C 179.472 5.619,179.416 6.163,179.414 6.934 M169.405 6.245 C 169.257 6.471,169.162 6.737,169.196 6.837 C 169.229 6.936,169.377 6.751,169.524 6.425 C 169.837 5.735,169.788 5.660,169.405 6.245 M181.939 6.607 C 181.800 7.621,181.806 8.000,181.958 7.999 C 182.027 7.998,182.104 7.510,182.129 6.915 C 182.183 5.652,182.091 5.502,181.939 6.607 M191.439 6.814 C 191.375 7.216,191.357 7.580,191.400 7.623 C 191.512 7.735,191.715 6.560,191.628 6.301 C 191.588 6.182,191.503 6.413,191.439 6.814 M219.652 6.602 C 218.825 8.696,220.440 11.753,222.035 11.113 C 222.153 11.065,222.055 11.020,221.816 11.013 C 220.226 10.965,219.102 8.741,219.750 6.923 C 220.021 6.160,219.937 5.882,219.652 6.602 M230.909 7.076 C 230.845 7.501,230.834 7.890,230.884 7.940 C 230.934 7.990,231.027 7.683,231.091 7.258 C 231.155 6.832,231.166 6.444,231.116 6.394 C 231.066 6.344,230.973 6.651,230.909 7.076 M239.360 6.995 C 239.237 7.276,238.937 7.614,238.693 7.746 C 238.449 7.878,238.343 7.990,238.456 7.993 C 238.811 8.005,239.708 7.087,239.644 6.777 C 239.598 6.558,239.528 6.612,239.360 6.995 M168.264 7.514 C 168.201 7.986,168.184 8.406,168.225 8.447 C 168.266 8.488,168.352 8.137,168.417 7.667 C 168.481 7.197,168.499 6.777,168.456 6.734 C 168.413 6.691,168.327 7.042,168.264 7.514 M198.205 7.167 C 198.205 7.487,198.240 7.619,198.282 7.458 C 198.323 7.298,198.323 7.035,198.282 6.875 C 198.240 6.715,198.205 6.846,198.205 7.167 M241.043 7.193 C 240.929 7.510,240.685 7.930,240.501 8.127 C 240.143 8.512,240.056 8.755,240.340 8.579 C 240.654 8.385,241.354 7.148,241.302 6.880 C 241.272 6.729,241.162 6.862,241.043 7.193 M251.407 7.145 C 251.811 7.577,251.897 7.811,251.897 8.483 C 251.897 9.086,251.954 9.276,252.115 9.215 C 252.364 9.119,252.422 7.833,252.178 7.833 C 252.092 7.833,251.977 7.690,251.921 7.515 C 251.866 7.340,251.617 7.067,251.369 6.909 L 250.917 6.621 251.407 7.145 M214.109 6.958 C 214.066 7.027,214.741 7.059,215.609 7.030 C 216.733 6.992,217.269 7.040,217.469 7.197 C 217.721 7.394,217.727 7.387,217.521 7.125 C 217.282 6.820,214.286 6.674,214.109 6.958 M168.904 7.761 C 168.842 8.088,168.860 8.507,168.943 8.693 C 169.056 8.947,169.097 8.800,169.107 8.099 C 169.123 7.022,169.061 6.920,168.904 7.761 M221.214 7.917 C 221.216 8.375,221.248 8.543,221.286 8.289 C 221.325 8.036,221.324 7.661,221.284 7.456 C 221.244 7.251,221.213 7.458,221.214 7.917 M189.667 8.210 C 189.254 8.684,189.090 8.952,189.301 8.805 C 189.732 8.506,190.686 7.300,190.458 7.341 C 190.435 7.345,190.079 7.736,189.667 8.210 M213.797 7.827 C 213.631 8.405,213.863 8.495,215.528 8.497 C 217.223 8.500,217.504 8.421,217.489 7.941 C 217.479 7.587,217.477 7.587,217.328 7.958 C 217.187 8.310,217.080 8.333,215.600 8.333 L 214.022 8.333 213.968 7.875 L 213.914 7.417 213.797 7.827 M204.152 8.056 C 203.915 8.254,203.431 8.642,203.076 8.917 C 202.333 9.493,201.462 10.286,201.833 10.048 C 201.971 9.961,202.646 9.448,203.333 8.909 C 204.021 8.371,204.615 7.908,204.653 7.882 C 204.691 7.855,204.691 7.802,204.653 7.764 C 204.615 7.726,204.389 7.857,204.152 8.056 M191.192 8.333 C 191.176 8.654,191.124 9.104,191.076 9.333 L 190.991 9.750 191.170 9.339 C 191.268 9.113,191.321 8.663,191.286 8.339 L 191.223 7.750 191.192 8.333 M197.924 7.989 C 197.854 8.101,196.959 8.167,195.502 8.167 C 192.902 8.167,192.607 8.279,192.699 9.229 L 192.750 9.750 196.542 9.795 L 200.333 9.840 200.333 10.406 C 200.333 10.717,200.240 11.010,200.125 11.056 C 200.010 11.103,200.082 11.146,200.284 11.154 C 200.486 11.161,200.842 10.976,201.076 10.742 C 201.636 10.182,201.617 10.050,201.042 10.504 L 200.583 10.866 200.500 10.308 L 200.417 9.750 196.625 9.705 C 192.930 9.662,192.833 9.652,192.833 9.319 C 192.833 8.389,192.988 8.333,195.579 8.333 C 197.758 8.333,198.438 8.216,198.117 7.894 C 198.071 7.849,197.984 7.891,197.924 7.989 M250.000 8.120 C 250.000 8.226,250.072 8.358,250.159 8.412 C 250.349 8.529,250.214 8.969,249.866 9.375 C 249.642 9.635,249.196 9.671,245.766 9.705 L 241.917 9.743 245.667 9.793 C 249.662 9.845,249.979 9.795,250.316 9.054 C 250.464 8.731,250.450 8.568,250.252 8.285 C 250.113 8.087,250.000 8.013,250.000 8.120 M205.750 8.710 C 205.475 8.911,205.151 9.171,205.030 9.288 C 204.909 9.405,204.758 9.500,204.695 9.500 C 204.632 9.500,204.393 9.673,204.165 9.883 C 203.937 10.094,203.451 10.469,203.086 10.717 C 202.721 10.964,202.496 11.166,202.586 11.165 C 202.676 11.163,203.603 10.526,204.645 9.748 C 205.686 8.970,206.474 8.336,206.395 8.339 C 206.315 8.342,206.025 8.509,205.750 8.710 M209.167 9.750 C 209.942 10.529,210.617 11.167,210.668 11.167 C 210.718 11.167,210.136 10.529,209.374 9.750 C 208.612 8.971,207.937 8.333,207.873 8.333 C 207.810 8.333,208.392 8.971,209.167 9.750 M230.615 8.671 C 230.554 8.898,230.511 9.271,230.519 9.500 C 230.529 9.799,230.577 9.732,230.687 9.261 C 230.856 8.539,230.791 8.010,230.615 8.671 M168.023 8.912 C 167.922 10.367,167.604 11.000,166.973 11.000 C 166.400 11.000,166.349 10.960,166.287 10.458 C 166.221 9.925,166.220 9.926,166.193 10.542 L 166.167 11.167 166.922 11.167 C 167.384 11.167,167.700 11.086,167.736 10.958 C 167.768 10.844,167.885 10.446,167.996 10.074 C 168.107 9.703,168.164 9.215,168.122 8.991 C 168.064 8.683,168.040 8.663,168.023 8.912 M178.433 9.606 C 177.929 10.210,176.941 10.801,176.083 11.010 C 175.684 11.108,175.659 11.136,175.960 11.150 C 176.744 11.185,179.326 9.438,178.989 9.100 C 178.949 9.060,178.699 9.288,178.433 9.606 M169.168 9.298 C 169.163 9.953,170.619 11.180,171.372 11.154 C 171.601 11.146,171.652 11.108,171.500 11.059 C 170.445 10.715,169.946 10.379,169.577 9.763 C 169.353 9.389,169.169 9.180,169.168 9.298 M179.748 9.792 C 179.693 10.135,179.622 10.548,179.590 10.708 C 179.558 10.868,179.587 11.034,179.655 11.076 C 179.722 11.118,179.778 11.062,179.779 10.951 C 179.780 10.840,179.834 10.394,179.900 9.958 C 179.966 9.523,179.982 9.167,179.934 9.167 C 179.887 9.167,179.803 9.448,179.748 9.792 M181.400 9.567 C 181.350 9.696,181.341 10.052,181.378 10.359 C 181.440 10.865,181.449 10.851,181.473 10.212 L 181.500 9.507 184.792 9.458 L 188.083 9.409 184.786 9.371 C 182.083 9.340,181.473 9.376,181.400 9.567 M232.166 9.458 C 232.166 9.527,233.160 9.564,234.375 9.540 C 238.403 9.461,238.790 9.399,235.458 9.366 C 233.648 9.348,232.167 9.390,232.166 9.458 M251.249 10.106 C 250.975 10.425,250.450 10.791,250.083 10.919 C 249.605 11.086,249.525 11.154,249.801 11.159 C 250.245 11.168,251.247 10.530,251.615 10.006 C 252.028 9.415,251.787 9.482,251.249 10.106 M228.639 9.798 C 228.526 10.064,227.449 10.717,226.777 10.928 C 226.288 11.080,226.200 11.148,226.477 11.156 C 226.694 11.162,227.181 10.998,227.560 10.792 C 228.354 10.360,229.171 9.667,228.887 9.667 C 228.781 9.667,228.669 9.726,228.639 9.798 M190.801 10.427 C 190.762 10.753,190.792 11.058,190.866 11.103 C 190.940 11.149,191.000 10.882,191.000 10.510 C 191.000 9.675,190.893 9.630,190.801 10.427 M241.634 10.427 C 241.596 10.753,241.611 11.049,241.667 11.084 C 241.723 11.118,241.787 10.851,241.808 10.490 C 241.856 9.671,241.728 9.625,241.634 10.427 M231.899 10.582 C 231.799 10.904,231.779 11.167,231.855 11.167 C 232.016 11.167,232.227 10.431,232.141 10.172 C 232.109 10.076,232.000 10.260,231.899 10.582 M230.298 10.625 C 230.243 10.831,230.271 11.045,230.360 11.100 C 230.592 11.243,230.627 11.140,230.505 10.667 C 230.398 10.252,230.397 10.252,230.298 10.625 " stroke="none" fill="#908c8c" fill-rule="evenodd"></path><path id="path4" d="M162.874 0.625 C 162.863 1.111,162.892 1.176,163.002 0.917 C 163.189 0.476,163.202 0.000,163.027 0.000 C 162.950 0.000,162.881 0.281,162.874 0.625 M160.417 0.533 C 160.233 0.638,159.956 0.867,159.801 1.044 C 159.459 1.430,159.111 1.272,159.261 0.798 C 159.333 0.572,159.308 0.496,159.185 0.572 C 158.904 0.746,158.964 1.284,159.277 1.404 C 159.452 1.471,159.716 1.355,159.995 1.089 C 160.886 0.235,161.959 0.717,161.838 1.917 C 161.812 2.178,161.849 2.207,162.010 2.051 C 162.313 1.756,161.902 0.877,161.318 0.575 C 160.768 0.291,160.836 0.294,160.417 0.533 M160.398 1.405 C 160.232 1.837,160.465 2.195,160.874 2.137 C 161.150 2.098,161.250 1.972,161.250 1.667 C 161.250 1.175,160.567 0.965,160.398 1.405 M161.135 1.710 C 161.174 1.910,161.084 2.000,160.846 2.000 C 160.607 2.000,160.500 1.893,160.500 1.654 C 160.500 1.227,161.052 1.276,161.135 1.710 M162.423 2.208 C 162.022 3.480,161.950 3.522,160.226 3.465 L 158.752 3.417 158.646 2.917 L 158.539 2.417 158.520 2.958 C 158.508 3.289,158.581 3.501,158.708 3.504 C 158.823 3.506,158.732 3.649,158.507 3.822 C 158.147 4.099,158.057 4.109,157.762 3.902 C 157.526 3.737,157.002 3.676,156.005 3.698 L 154.583 3.730 156.077 3.823 L 157.571 3.917 157.676 4.431 C 157.823 5.157,157.967 5.336,158.385 5.314 C 158.693 5.298,158.701 5.282,158.441 5.215 C 158.089 5.125,158.165 4.210,158.544 3.969 C 159.090 3.623,161.808 3.817,161.884 4.208 C 161.924 4.415,161.933 4.340,161.905 4.042 C 161.877 3.744,161.919 3.500,161.999 3.500 C 162.178 3.500,162.868 1.688,162.784 1.437 C 162.751 1.335,162.588 1.682,162.423 2.208 M167.157 2.191 C 166.953 2.682,166.968 2.740,167.396 3.108 C 168.373 3.949,169.842 3.085,169.399 1.930 C 169.343 1.785,169.222 1.667,169.128 1.667 C 169.030 1.667,169.046 1.771,169.165 1.915 C 169.469 2.281,169.228 2.985,168.734 3.173 C 167.776 3.537,167.000 2.913,167.416 2.112 C 167.543 1.867,167.585 1.667,167.510 1.667 C 167.435 1.667,167.276 1.903,167.157 2.191 M158.769 2.137 C 158.722 2.212,158.888 2.243,159.138 2.206 C 159.446 2.161,159.691 2.251,159.905 2.487 C 160.281 2.903,161.353 2.962,161.667 2.583 C 161.810 2.411,161.816 2.333,161.687 2.333 C 161.584 2.333,161.500 2.408,161.500 2.500 C 161.500 2.791,160.433 2.672,160.000 2.333 C 159.572 1.999,158.918 1.894,158.769 2.137 M167.200 3.867 C 167.090 3.977,167.006 4.295,167.013 4.575 C 167.027 5.107,167.071 5.052,167.239 4.292 C 167.332 3.866,167.400 3.833,168.171 3.833 L 169.003 3.833 168.924 4.792 L 168.845 5.750 169.002 4.917 C 169.089 4.458,169.126 3.990,169.085 3.875 C 168.988 3.604,167.469 3.598,167.200 3.867 M173.550 3.791 C 174.356 3.821,175.631 3.821,176.383 3.791 C 177.135 3.760,176.475 3.735,174.917 3.735 C 173.358 3.735,172.743 3.760,173.550 3.791 M180.776 3.792 C 180.733 3.860,182.674 3.896,185.088 3.870 L 189.478 3.823 190.073 4.417 C 190.399 4.744,190.667 4.941,190.667 4.856 C 190.667 4.771,190.402 4.468,190.078 4.184 L 189.488 3.667 185.171 3.667 C 182.796 3.667,180.818 3.723,180.776 3.792 M191.944 3.788 C 191.901 3.859,194.033 3.896,196.682 3.870 C 200.915 3.829,201.500 3.854,201.500 4.078 C 201.500 4.219,201.581 4.333,201.680 4.333 C 201.779 4.333,202.154 4.639,202.513 5.014 C 202.873 5.388,203.167 5.622,203.167 5.535 C 203.167 5.447,202.829 5.065,202.417 4.684 C 202.004 4.304,201.667 3.957,201.667 3.913 C 201.667 3.751,204.142 3.839,204.224 4.004 C 204.270 4.098,204.289 4.079,204.265 3.963 C 204.217 3.722,192.091 3.551,191.944 3.788 M212.958 3.788 C 213.767 3.835,214.497 4.142,213.875 4.173 C 213.806 4.176,213.450 4.448,213.083 4.777 L 212.417 5.375 213.250 4.801 C 214.413 4.000,214.355 3.753,213.000 3.739 L 211.917 3.727 212.958 3.788 M221.665 4.208 C 220.767 4.747,219.499 6.189,219.505 6.667 C 219.506 6.804,219.637 6.655,219.794 6.335 C 220.184 5.542,221.171 4.586,222.024 4.174 C 223.067 3.670,227.803 3.664,228.625 4.165 C 228.923 4.346,229.167 4.458,229.167 4.412 C 229.167 3.895,227.993 3.668,225.326 3.667 L 222.569 3.667 221.665 4.208 M231.442 3.793 C 231.399 3.862,231.318 4.219,231.263 4.585 C 231.191 5.066,231.206 5.158,231.320 4.917 C 231.406 4.733,231.482 4.415,231.488 4.208 L 231.500 3.833 235.828 3.833 L 240.156 3.833 240.744 4.422 C 241.336 5.014,241.372 5.144,241.364 6.667 L 241.361 7.250 241.477 6.667 C 241.680 5.640,241.430 4.808,240.737 4.208 L 240.111 3.667 235.815 3.667 C 233.453 3.667,231.485 3.723,231.442 3.793 M243.167 4.083 C 242.856 4.313,242.661 4.500,242.734 4.500 C 242.806 4.500,243.074 4.351,243.329 4.170 C 243.759 3.864,244.116 3.835,248.105 3.792 L 252.417 3.744 248.074 3.705 L 243.731 3.667 243.167 4.083 M154.001 4.413 C 153.679 5.389,154.047 5.604,154.864 4.917 C 155.136 4.688,155.290 4.500,155.205 4.500 C 155.121 4.500,154.916 4.650,154.750 4.833 C 154.132 5.516,153.792 5.153,154.241 4.292 C 154.373 4.040,154.415 3.833,154.336 3.833 C 154.257 3.833,154.106 4.094,154.001 4.413 M177.833 3.908 C 177.833 3.954,178.055 4.106,178.327 4.247 C 179.536 4.872,180.053 7.005,179.336 8.412 C 179.154 8.769,179.036 9.092,179.074 9.130 C 179.602 9.657,180.037 6.385,179.563 5.450 C 179.157 4.647,177.833 3.467,177.833 3.908 M210.994 4.346 L 210.417 4.860 210.953 4.505 C 211.429 4.191,211.789 3.833,211.629 3.833 C 211.597 3.833,211.311 4.064,210.994 4.346 M170.731 4.538 C 170.092 5.031,169.971 5.157,169.536 5.776 C 168.947 6.613,169.109 6.624,169.746 5.789 C 170.065 5.372,170.571 4.837,170.871 4.600 C 171.171 4.364,171.371 4.170,171.314 4.169 C 171.258 4.167,170.995 4.334,170.731 4.538 M159.336 4.453 C 159.058 4.566,158.588 5.000,158.744 5.000 C 158.800 5.000,159.026 4.881,159.248 4.736 C 159.736 4.416,160.247 4.546,160.595 5.078 C 160.890 5.528,160.770 6.248,160.356 6.512 C 160.147 6.645,160.142 6.671,160.333 6.622 C 160.667 6.537,161.046 5.734,160.923 5.372 C 160.673 4.637,159.936 4.210,159.336 4.453 M156.083 4.699 C 156.267 4.802,156.477 4.988,156.550 5.110 C 156.697 5.357,157.430 5.415,157.568 5.191 C 157.617 5.112,157.466 5.084,157.234 5.129 C 156.932 5.187,156.741 5.109,156.563 4.855 C 156.426 4.660,156.187 4.502,156.032 4.505 C 155.796 4.509,155.804 4.541,156.083 4.699 M180.448 4.838 C 180.388 5.064,180.344 5.438,180.352 5.667 C 180.363 5.966,180.410 5.899,180.520 5.428 C 180.690 4.706,180.625 4.177,180.448 4.838 M191.576 5.242 C 191.512 5.668,191.497 6.053,191.543 6.099 C 191.589 6.145,191.679 5.834,191.742 5.409 C 191.806 4.984,191.821 4.599,191.775 4.553 C 191.729 4.507,191.640 4.817,191.576 5.242 M204.833 4.625 C 204.833 4.700,205.263 5.171,205.788 5.672 C 206.313 6.173,206.557 6.363,206.330 6.094 C 205.625 5.259,204.833 4.482,204.833 4.625 M242.238 5.078 C 242.090 5.304,241.994 5.557,242.026 5.639 C 242.058 5.722,242.205 5.537,242.354 5.228 C 242.672 4.567,242.618 4.498,242.238 5.078 M161.595 5.262 C 161.534 5.506,161.521 5.743,161.567 5.789 C 161.613 5.835,161.701 5.673,161.762 5.429 C 161.823 5.184,161.836 4.947,161.790 4.901 C 161.744 4.855,161.657 5.018,161.595 5.262 M209.173 5.665 C 208.387 6.263,207.915 6.501,207.423 6.546 L 206.750 6.608 207.433 6.638 C 208.043 6.664,210.333 5.300,210.333 4.911 C 210.333 4.786,210.300 4.807,209.173 5.665 M251.939 5.080 C 251.639 5.307,251.641 5.315,251.980 5.289 C 252.174 5.274,252.333 5.166,252.333 5.048 C 252.333 4.786,252.326 4.786,251.939 5.080 M155.167 5.299 C 155.167 5.384,155.366 5.416,155.609 5.369 C 155.996 5.295,156.040 5.330,155.958 5.642 C 155.907 5.839,155.938 6.000,156.027 6.000 C 156.117 6.000,156.166 5.831,156.137 5.625 C 156.084 5.252,155.167 4.944,155.167 5.299 M159.615 5.283 C 159.825 5.324,160.009 5.508,160.050 5.719 C 160.109 6.019,160.125 6.002,160.144 5.625 C 160.164 5.226,160.108 5.170,159.708 5.189 C 159.331 5.208,159.314 5.225,159.615 5.283 M190.738 6.083 C 190.738 6.581,190.796 6.897,190.866 6.785 C 190.937 6.674,190.995 6.358,190.995 6.083 C 190.995 5.808,190.937 5.492,190.866 5.381 C 190.796 5.270,190.738 5.586,190.738 6.083 M176.708 5.538 C 176.960 5.644,177.167 5.792,177.167 5.866 C 177.167 5.939,177.258 6.000,177.369 6.000 C 177.703 6.000,177.135 5.548,176.667 5.441 C 176.287 5.354,176.290 5.363,176.708 5.538 M182.238 5.737 C 182.183 5.959,182.173 6.277,182.216 6.445 C 182.263 6.629,182.302 6.549,182.314 6.242 C 182.325 5.962,182.423 5.643,182.533 5.533 C 182.685 5.381,182.686 5.333,182.537 5.333 C 182.428 5.333,182.294 5.515,182.238 5.737 M193.402 5.750 C 193.182 6.627,193.290 6.667,195.900 6.667 C 198.180 6.667,198.314 6.685,198.386 7.003 C 198.448 7.282,198.457 7.275,198.439 6.961 C 198.417 6.589,198.380 6.583,195.958 6.537 C 193.369 6.489,192.937 6.296,193.700 5.533 C 193.852 5.381,193.853 5.333,193.703 5.333 C 193.595 5.333,193.459 5.521,193.402 5.750 M211.667 5.848 L 211.083 6.353 211.706 5.968 C 212.049 5.757,212.330 5.527,212.331 5.458 C 212.334 5.277,212.307 5.293,211.667 5.848 M226.917 5.500 C 226.973 5.592,227.103 5.667,227.205 5.667 C 227.307 5.667,227.513 5.760,227.662 5.875 C 227.811 5.990,227.756 5.915,227.541 5.708 C 227.145 5.331,226.725 5.190,226.917 5.500 M230.924 6.091 C 230.860 6.516,230.846 6.901,230.892 6.947 C 230.937 6.993,231.027 6.683,231.091 6.258 C 231.155 5.832,231.169 5.447,231.123 5.401 C 231.078 5.355,230.988 5.666,230.924 6.091 M244.168 5.581 C 243.623 6.238,244.006 6.333,247.192 6.333 C 250.526 6.333,251.472 6.556,251.873 7.438 C 252.030 7.781,252.333 7.988,252.333 7.751 C 252.333 7.525,251.511 6.764,250.965 6.484 C 250.423 6.206,249.966 6.167,247.257 6.167 C 244.101 6.167,243.555 6.039,244.458 5.513 C 244.619 5.420,244.665 5.341,244.562 5.338 C 244.459 5.336,244.282 5.445,244.168 5.581 M166.771 5.756 C 166.713 5.905,166.673 6.190,166.682 6.389 C 166.692 6.645,166.744 6.587,166.858 6.190 C 167.024 5.613,166.956 5.274,166.771 5.756 M222.084 5.999 C 221.918 6.183,221.836 6.333,221.903 6.333 C 222.078 6.333,222.554 5.831,222.463 5.741 C 222.421 5.699,222.251 5.815,222.084 5.999 M153.513 6.068 C 153.406 6.197,153.336 6.610,153.358 6.985 L 153.399 7.667 154.949 7.667 L 156.500 7.667 156.500 8.333 L 156.500 9.000 154.684 9.000 C 152.757 9.000,152.476 8.880,152.935 8.253 C 153.063 8.079,153.166 7.857,153.164 7.760 C 153.163 7.663,153.100 7.681,153.024 7.800 C 152.915 7.972,152.844 7.964,152.673 7.758 C 152.133 7.107,148.833 7.500,148.833 8.216 C 148.833 8.321,148.950 8.241,149.093 8.037 C 149.330 7.699,149.489 7.667,150.916 7.667 C 152.631 7.667,152.806 7.760,152.496 8.510 L 152.293 9.000 150.605 9.035 L 148.917 9.070 150.569 9.125 C 151.540 9.157,152.290 9.110,152.390 9.010 C 152.504 8.896,152.625 8.896,152.762 9.010 C 152.879 9.107,153.725 9.158,154.774 9.131 L 156.583 9.083 156.599 8.306 C 156.614 7.554,156.920 7.000,157.321 7.000 C 157.485 7.000,157.569 7.229,157.520 7.542 C 157.509 7.610,158.213 7.667,159.083 7.667 C 160.925 7.667,160.880 7.602,160.317 9.441 C 159.807 11.105,159.723 11.167,157.995 11.167 C 156.295 11.167,155.959 10.973,156.425 10.261 C 156.760 9.749,157.339 9.703,157.628 10.167 C 157.742 10.350,157.907 10.500,157.993 10.500 C 158.080 10.500,157.977 10.313,157.765 10.083 C 157.365 9.652,156.500 9.504,156.500 9.867 C 156.500 10.022,156.456 10.022,156.300 9.867 C 156.044 9.611,152.568 9.589,152.412 9.841 C 152.337 9.961,152.232 9.957,152.075 9.827 C 151.620 9.449,147.676 9.731,148.058 10.114 C 148.121 10.177,148.261 10.139,148.369 10.031 C 148.496 9.904,149.184 9.833,150.283 9.833 C 152.118 9.833,152.452 10.056,151.763 10.820 C 151.552 11.053,151.576 11.085,151.971 11.099 C 152.374 11.113,152.417 11.058,152.417 10.516 L 152.417 9.917 154.250 9.917 C 156.226 9.917,156.440 10.058,155.709 10.875 C 155.547 11.056,155.521 11.167,155.641 11.167 C 155.747 11.167,155.833 11.092,155.833 11.000 C 155.833 10.701,156.141 10.825,156.250 11.167 C 156.345 11.467,156.502 11.500,157.850 11.500 C 159.609 11.500,159.669 11.561,159.243 12.917 C 159.083 13.425,158.990 13.879,159.036 13.925 C 159.174 14.063,159.685 12.046,159.632 11.569 C 159.571 11.013,160.078 10.612,160.354 11.000 C 160.548 11.273,160.520 11.137,160.238 10.431 C 160.150 10.213,160.169 10.149,160.297 10.228 C 160.417 10.302,160.549 10.086,160.663 9.630 C 160.761 9.238,160.914 8.786,161.004 8.627 C 161.093 8.468,161.167 8.226,161.167 8.089 C 161.167 7.742,161.700 7.643,163.249 7.701 L 164.581 7.750 164.672 8.250 C 164.761 8.741,164.765 8.742,164.874 8.342 C 165.065 7.646,164.764 7.500,163.135 7.500 C 161.561 7.500,161.009 7.662,160.986 8.131 C 160.978 8.288,160.904 8.192,160.822 7.917 C 160.726 7.597,160.733 7.396,160.840 7.360 C 161.045 7.290,161.502 6.431,161.493 6.133 C 161.490 6.014,161.374 6.177,161.236 6.495 C 160.618 7.921,157.333 7.695,157.333 6.227 C 157.333 5.833,156.974 5.800,156.593 6.158 C 156.382 6.355,155.994 6.582,155.730 6.661 C 155.340 6.778,155.318 6.807,155.612 6.819 C 155.811 6.827,156.197 6.646,156.470 6.417 C 157.058 5.922,157.167 5.903,157.167 6.296 C 157.167 7.125,156.744 7.333,155.064 7.333 L 153.480 7.333 153.532 6.708 C 153.593 5.963,154.085 5.783,154.577 6.326 C 154.746 6.513,154.959 6.667,155.050 6.667 C 155.141 6.667,155.013 6.479,154.766 6.250 C 154.262 5.784,153.804 5.717,153.513 6.068 M157.562 6.078 C 157.511 6.212,157.507 6.419,157.554 6.536 C 157.602 6.654,157.646 6.581,157.654 6.375 C 157.670 5.897,158.253 5.868,158.739 6.321 C 158.928 6.498,159.308 6.685,159.583 6.739 L 160.083 6.835 159.583 6.646 C 159.308 6.543,158.928 6.317,158.739 6.145 C 158.329 5.773,157.693 5.736,157.562 6.078 M168.583 6.500 C 168.519 6.879,168.502 7.224,168.545 7.267 C 168.587 7.310,168.672 7.032,168.733 6.650 C 168.794 6.268,168.812 5.923,168.772 5.883 C 168.732 5.843,168.647 6.121,168.583 6.500 M188.693 6.360 C 188.638 7.633,188.075 7.849,184.948 7.796 L 182.265 7.750 182.141 7.333 C 182.026 6.945,182.020 6.951,182.051 7.417 L 182.083 7.917 184.792 7.962 C 188.242 8.021,188.965 7.717,188.787 6.284 C 188.721 5.755,188.720 5.756,188.693 6.360 M171.275 6.444 C 171.106 6.671,171.002 6.891,171.044 6.933 C 171.087 6.976,171.250 6.814,171.407 6.574 C 171.778 6.009,171.676 5.909,171.275 6.444 M203.667 6.131 C 203.667 6.188,203.910 6.487,204.208 6.795 L 204.750 7.357 204.000 8.027 C 203.588 8.396,203.475 8.542,203.750 8.352 C 205.055 7.447,205.071 7.392,204.250 6.594 C 203.929 6.283,203.667 6.074,203.667 6.131 M210.375 6.820 C 209.646 7.431,209.621 7.373,211.409 9.257 C 213.304 11.254,213.287 11.167,211.796 11.167 L 210.593 11.167 209.588 10.208 L 208.583 9.250 209.583 10.298 L 210.583 11.345 211.833 11.298 C 213.412 11.237,213.412 11.233,211.583 9.249 C 210.175 7.722,209.789 7.174,210.113 7.161 C 210.298 7.154,211.064 6.508,210.982 6.429 C 210.946 6.394,210.673 6.570,210.375 6.820 M228.083 7.083 C 228.083 7.478,228.138 7.715,228.206 7.609 C 228.273 7.503,228.328 7.267,228.328 7.083 C 228.328 6.900,228.273 6.663,228.206 6.558 C 228.138 6.452,228.083 6.688,228.083 7.083 M232.853 6.445 C 232.842 6.552,232.785 6.777,232.725 6.945 C 232.642 7.182,232.664 7.207,232.824 7.059 C 232.938 6.955,232.995 6.730,232.952 6.559 C 232.908 6.389,232.863 6.338,232.853 6.445 M180.083 7.000 C 180.020 7.288,180.006 7.561,180.052 7.607 C 180.097 7.653,180.187 7.455,180.250 7.167 C 180.313 6.879,180.328 6.605,180.282 6.559 C 180.236 6.514,180.147 6.712,180.083 7.000 M242.007 6.671 C 241.976 7.872,242.959 8.172,246.783 8.132 L 250.083 8.097 246.667 8.007 C 242.931 7.908,242.631 7.836,242.243 6.945 C 242.117 6.655,242.010 6.531,242.007 6.671 M168.860 7.310 C 168.754 7.665,168.672 8.097,168.678 8.269 C 168.684 8.442,168.797 8.178,168.931 7.683 C 169.209 6.649,169.150 6.341,168.860 7.310 M191.271 6.923 C 191.213 7.072,191.174 7.357,191.184 7.555 C 191.195 7.784,191.251 7.703,191.338 7.334 C 191.483 6.715,191.444 6.472,191.271 6.923 M215.129 6.789 C 215.521 6.824,216.121 6.824,216.463 6.788 C 216.804 6.752,216.483 6.723,215.750 6.724 C 215.017 6.724,214.737 6.754,215.129 6.789 M213.824 7.275 C 213.731 7.518,213.680 7.790,213.710 7.880 C 213.740 7.970,213.848 7.771,213.950 7.438 C 214.164 6.739,214.073 6.621,213.824 7.275 M217.442 7.042 C 217.620 7.328,217.509 8.220,217.275 8.388 C 217.147 8.480,217.166 8.503,217.333 8.457 C 217.763 8.340,217.900 6.833,217.480 6.833 C 217.389 6.833,217.372 6.927,217.442 7.042 M219.268 7.264 C 219.124 7.637,219.142 8.965,219.292 9.058 C 219.360 9.100,219.417 8.654,219.417 8.067 C 219.417 6.896,219.414 6.882,219.268 7.264 M221.364 7.855 C 221.340 8.575,221.401 8.846,221.625 9.021 C 221.880 9.221,221.892 9.218,221.718 8.995 C 221.609 8.855,221.492 8.330,221.457 7.828 L 221.395 6.917 221.364 7.855 M190.170 7.846 C 189.942 8.215,189.530 8.661,189.253 8.839 C 188.976 9.016,188.844 9.162,188.959 9.164 C 189.245 9.168,190.667 7.705,190.667 7.407 C 190.667 7.066,190.632 7.097,190.170 7.846 M230.602 7.875 C 230.547 8.265,230.469 8.996,230.429 9.500 L 230.356 10.417 230.499 9.583 C 230.786 7.904,230.875 7.167,230.789 7.167 C 230.741 7.167,230.657 7.485,230.602 7.875 M166.426 7.926 C 166.363 8.260,166.349 8.572,166.395 8.617 C 166.441 8.663,166.530 8.427,166.593 8.093 C 166.655 7.758,166.669 7.447,166.623 7.401 C 166.578 7.355,166.489 7.591,166.426 7.926 M170.875 7.917 C 170.877 8.283,170.911 8.414,170.951 8.206 C 170.991 7.999,170.990 7.699,170.948 7.540 C 170.906 7.380,170.874 7.550,170.875 7.917 M238.583 7.598 C 238.309 7.807,237.760 7.843,235.474 7.801 C 233.947 7.773,232.733 7.806,232.775 7.875 C 233.066 8.344,239.167 7.902,239.167 7.412 C 239.167 7.264,238.917 7.343,238.583 7.598 M240.927 7.813 C 240.782 8.094,240.384 8.513,240.043 8.745 C 239.702 8.977,239.485 9.167,239.561 9.167 C 240.004 9.167,241.505 7.617,241.280 7.392 C 241.231 7.343,241.072 7.532,240.927 7.813 M157.042 7.777 C 156.792 7.878,156.761 8.936,157.003 9.085 C 157.097 9.143,157.403 8.998,157.683 8.762 C 157.963 8.526,158.123 8.333,158.039 8.333 C 157.954 8.333,157.749 8.483,157.583 8.667 C 157.046 9.261,156.752 8.776,157.173 7.989 C 157.267 7.812,157.324 7.673,157.298 7.680 C 157.271 7.687,157.156 7.731,157.042 7.777 M168.267 8.350 C 168.206 8.732,168.188 9.077,168.228 9.117 C 168.268 9.157,168.353 8.879,168.417 8.500 C 168.481 8.121,168.498 7.776,168.455 7.733 C 168.413 7.690,168.328 7.968,168.267 8.350 M198.134 7.958 C 198.033 8.325,197.979 8.333,195.609 8.333 C 194.276 8.333,193.151 8.390,193.109 8.458 C 193.013 8.612,198.097 8.461,198.252 8.305 C 198.313 8.243,198.334 8.056,198.300 7.888 C 198.246 7.627,198.222 7.637,198.134 7.958 M227.833 8.107 C 227.833 8.434,226.802 9.314,226.283 9.430 C 225.990 9.496,225.840 9.581,225.951 9.620 C 226.483 9.805,228.273 8.384,227.935 8.046 C 227.879 7.990,227.833 8.018,227.833 8.107 M158.583 8.333 C 158.767 8.412,159.029 8.477,159.167 8.477 C 159.324 8.477,159.293 8.424,159.083 8.333 C 158.900 8.255,158.637 8.190,158.500 8.190 C 158.342 8.190,158.373 8.243,158.583 8.333 M176.929 8.799 L 176.453 9.417 177.009 8.880 C 177.316 8.585,177.530 8.308,177.485 8.263 C 177.441 8.219,177.190 8.460,176.929 8.799 M179.772 8.814 C 179.708 9.216,179.691 9.580,179.734 9.623 C 179.846 9.735,180.048 8.560,179.961 8.301 C 179.922 8.182,179.837 8.413,179.772 8.814 M190.917 9.000 C 190.853 9.379,190.838 9.727,190.884 9.772 C 190.929 9.818,191.019 9.546,191.083 9.167 C 191.147 8.788,191.162 8.440,191.116 8.394 C 191.071 8.348,190.981 8.621,190.917 9.000 M207.081 8.457 C 207.447 8.494,207.859 8.613,207.998 8.721 C 208.218 8.892,208.221 8.879,208.021 8.625 C 207.861 8.421,207.586 8.342,207.105 8.361 L 206.417 8.389 207.081 8.457 M213.890 8.539 C 213.996 8.606,214.758 8.652,215.583 8.641 C 217.297 8.618,217.053 8.537,215.057 8.465 C 214.309 8.438,213.784 8.471,213.890 8.539 M250.000 8.740 C 250.000 9.251,250.095 9.292,250.215 8.833 C 250.263 8.650,250.234 8.458,250.151 8.407 C 250.068 8.356,250.000 8.506,250.000 8.740 M168.838 8.833 C 168.838 8.971,168.911 9.196,169.000 9.333 C 169.144 9.556,169.162 9.556,169.162 9.333 C 169.162 9.196,169.089 8.971,169.000 8.833 C 168.856 8.611,168.838 8.611,168.838 8.833 M229.365 9.160 C 228.959 9.709,228.879 9.979,229.224 9.633 C 229.460 9.397,229.886 8.667,229.787 8.667 C 229.755 8.667,229.565 8.889,229.365 9.160 M192.844 9.205 L 192.833 9.660 196.625 9.705 L 200.417 9.750 200.500 10.300 C 200.579 10.823,200.600 10.837,200.917 10.592 C 201.184 10.384,201.192 10.353,200.958 10.434 C 200.731 10.513,200.667 10.443,200.667 10.119 C 200.667 9.523,200.515 9.500,196.648 9.500 C 193.182 9.500,193.155 9.497,193.005 9.125 C 192.860 8.764,192.854 8.767,192.844 9.205 M158.056 9.261 C 157.917 9.624,158.219 9.876,158.689 9.787 C 159.051 9.718,159.046 9.710,158.625 9.689 C 158.155 9.666,157.983 9.268,158.375 9.110 C 158.538 9.045,158.537 9.023,158.370 9.013 C 158.252 9.006,158.111 9.118,158.056 9.261 M202.018 9.585 C 201.616 9.905,201.353 10.164,201.435 10.160 C 201.590 10.154,202.979 9.006,202.833 9.004 C 202.787 9.004,202.421 9.265,202.018 9.585 M166.078 9.897 C 165.898 11.092,165.982 11.243,166.849 11.300 C 167.328 11.331,167.678 11.269,167.787 11.133 C 167.988 10.884,168.267 9.691,168.083 9.867 C 168.016 9.931,167.911 10.231,167.850 10.533 C 167.744 11.055,167.696 11.086,166.930 11.135 L 166.121 11.187 166.236 10.177 C 166.367 9.019,166.242 8.799,166.078 9.897 M251.757 9.708 L 251.489 10.250 251.911 9.799 C 252.362 9.317,252.426 9.167,252.179 9.167 C 252.094 9.167,251.904 9.410,251.757 9.708 M178.324 9.958 L 177.750 10.583 178.375 10.009 C 178.957 9.474,179.077 9.333,178.949 9.333 C 178.922 9.333,178.640 9.615,178.324 9.958 M219.505 9.509 C 219.502 9.651,219.781 10.026,220.125 10.342 C 220.663 10.837,220.689 10.848,220.314 10.417 C 220.074 10.142,219.795 9.767,219.694 9.583 C 219.558 9.337,219.509 9.317,219.505 9.509 M222.167 9.500 C 222.304 9.589,222.529 9.662,222.667 9.662 C 222.889 9.662,222.889 9.644,222.667 9.500 C 222.529 9.411,222.304 9.338,222.167 9.338 C 221.944 9.338,221.944 9.356,222.167 9.500 M181.512 9.958 C 181.522 10.364,181.540 10.379,181.667 10.083 C 181.862 9.628,181.862 9.500,181.667 9.500 C 181.575 9.500,181.505 9.706,181.512 9.958 M204.327 10.013 L 203.750 10.526 204.287 10.172 C 204.762 9.858,205.122 9.500,204.962 9.500 C 204.930 9.500,204.644 9.731,204.327 10.013 M159.214 10.117 C 159.011 10.327,158.906 10.500,158.980 10.500 C 159.143 10.500,159.749 9.852,159.652 9.782 C 159.614 9.755,159.417 9.906,159.214 10.117 M169.290 9.919 C 169.516 10.342,169.965 10.736,170.500 10.982 C 170.859 11.147,170.870 11.144,170.585 10.962 C 170.402 10.845,169.996 10.487,169.682 10.167 C 169.367 9.846,169.191 9.734,169.290 9.919 M232.192 10.167 C 232.145 11.060,231.990 11.194,231.067 11.135 C 230.359 11.090,230.256 11.039,230.299 10.750 C 230.338 10.482,230.315 10.465,230.183 10.661 C 229.912 11.065,230.304 11.333,231.167 11.333 C 232.126 11.333,232.378 11.083,232.289 10.220 L 232.223 9.583 232.192 10.167 M241.593 9.875 C 241.127 11.397,240.951 11.341,246.055 11.296 L 250.250 11.258 245.917 11.171 L 241.583 11.083 241.642 10.500 C 241.674 10.179,241.786 9.862,241.892 9.794 C 242.030 9.706,242.024 9.671,241.870 9.669 C 241.752 9.668,241.628 9.760,241.593 9.875 M164.186 10.094 C 164.175 10.283,164.014 10.601,163.827 10.802 C 163.640 11.003,163.563 11.167,163.656 11.167 C 163.926 11.167,164.368 10.379,164.283 10.050 C 164.217 9.794,164.202 9.801,164.186 10.094 M179.459 10.582 C 179.319 11.315,181.264 11.721,181.458 11.000 C 181.511 10.805,181.492 10.798,181.372 10.969 C 181.039 11.440,179.575 11.150,179.637 10.625 C 179.704 10.053,179.567 10.020,179.459 10.582 M190.577 10.687 C 190.385 11.293,190.732 11.328,196.866 11.331 L 202.815 11.333 203.282 10.901 L 203.750 10.469 203.221 10.820 C 202.705 11.163,202.550 11.170,196.721 11.127 L 190.750 11.083 190.802 10.708 C 190.868 10.234,190.725 10.220,190.577 10.687 M250.667 10.842 L 250.250 11.176 250.708 10.978 C 250.960 10.869,251.167 10.717,251.167 10.640 C 251.167 10.450,251.144 10.459,250.667 10.842 M176.764 10.958 C 176.696 11.027,175.352 11.124,173.778 11.174 L 170.917 11.265 173.667 11.293 C 175.786 11.315,176.512 11.267,176.833 11.083 C 177.063 10.952,177.169 10.842,177.069 10.839 C 176.970 10.836,176.833 10.890,176.764 10.958 M221.074 11.071 C 221.343 11.289,221.859 11.328,224.157 11.299 L 226.917 11.265 224.083 11.174 C 222.525 11.124,221.137 11.022,221.000 10.946 C 220.862 10.870,220.896 10.927,221.074 11.071 " stroke="none" fill="#c1b1a6" fill-rule="evenodd"></path></g></svg>